<svg xmlns="http://www.w3.org/2000/svg" xmlns:xlink="http://www.w3.org/1999/xlink" width="400" height="116" version="1.2" baseProfile="tiny">
  <defs />
  <g fill="none" stroke="black" stroke-width="1" fill-rule="evenodd" stroke-linecap="square" stroke-linejoin="bevel">
    <g fill="#ffffff" fill-opacity="1" stroke="none" transform="matrix(1,0,0,1,0,0)">
      <rect x="0" y="0" width="400" height="116" />
    </g>
    <!-- Boarder -->
    <rect x="0" y="0" width="400" height="115" stroke="#eaecef" stroke-width="2" />
    <!-- Repo name -->
    <g fill="#0366d6" fill-opacity="1" stroke="#0366d6" stroke-opacity="1" stroke-width="1" stroke-linecap="square" stroke-linejoin="bevel" transform="matrix(1,0,0,1,0,0)">
      <a href="https://github.com/koki-sato/github-card" target="_blank" rel="noopener noreferrer">
        <text fill="#0366d6" fill-opacity="1" stroke="none" xml:space="preserve" x="17" y="33" font-family="sans-serif" font-size="16" font-weight="630" font-style="normal">github-card</text>
      </a>
    </g>
    <!-- Description -->
    <g fill="#586068" fill-opacity="1" stroke="#586068" stroke-opacity="1" stroke-width="1" stroke-linecap="square" stroke-linejoin="bevel" transform="matrix(1,0,0,1,0,0)">
      <text fill="#586068" fill-opacity="1" stroke="none" xml:space="preserve" x="17" y="60" font-family="sans-serif" font-size="14" font-weight="400" font-style="normal">GitHub Repository Card Generator :octocat:</text>
    </g>
    <!-- Language -->
    <circle cx="23" cy="90" r="7" stroke="none" fill="#00ADD8" />
    <g fill="#24292e" fill-opacity="1" stroke="#24292e" stroke-opacity="1" stroke-width="1" stroke-linecap="square" stroke-linejoin="bevel" transform="matrix(1,0,0,1,0,0)">
      <text fill="#24292e" fill-opacity="1" stroke="none" xml:space="preserve" x="33" y="95" font-family="sans-serif" font-size="12" font-weight="400" font-style="normal">Go</text>
    </g>
    <!-- Stars -->
    <g fill="#000000" fill-opacity="1" stroke="none" transform="matrix(1,0,0,1,70,83)">
      <path d="M8 .25a.75.75 0 0 1 .673.418l1.882 3.815 4.21.612a.75.75 0 0 1 .416 1.279l-3.046 2.97.719 4.192a.751.751 0 0 1-1.088.791L8 12.347l-3.766 1.98a.75.75 0 0 1-1.088-.79l.72-4.194L.818 6.374a.75.75 0 0 1 .416-1.28l4.21-.611L7.327.668A.75.75 0 0 1 8 .25Zm0 2.445L6.615 5.5a.75.75 0 0 1-.564.41l-3.097.45 2.24 2.184a.75.75 0 0 1 .216.664l-.528 3.084 2.769-1.456a.75.75 0 0 1 .698 0l2.77 1.456-.53-3.084a.75.75 0 0 1 .216-.664l2.24-2.183-3.096-.45a.75.75 0 0 1-.564-.41L8 2.694Z" />
    </g>
    <text fill="#586068" fill-opacity="1" stroke="none" xml:space="preserve" x="90" y="95" font-family="sans-serif" font-size="12" font-weight="400" font-style="normal">0</text>
    <!-- Forks -->
    <g fill="#000000" fill-opacity="1" stroke="none" transform="matrix(1,0,0,1,115,83)">
      <path d="M5 5.372v.878c0 .414.336.75.75.75h4.5a.75.75 0 0 0 .75-.75v-.878a2.25 2.25 0 1 1 1.5 0v.878a2.25 2.25 0 0 1-2.25 2.25h-1.5v2.128a2.251 2.251 0 1 1-1.5 0V8.5h-1.5A2.25 2.25 0 0 1 3.5 6.25v-.878a2.25 2.25 0 1 1 1.5 0ZM5 3.25a.75.75 0 1 0-1.5 0 .75.75 0 0 0 1.5 0Zm6.75.75a.75.75 0 1 0 0-1.5.75.75 0 0 0 0 1.5Zm-3 8.75a.75.75 0 1 0-1.5 0 .75.75 0 0 0 1.5 0Z" />
    </g>
    <text fill="#586068" fill-opacity="1" stroke="none" xml:space="preserve" x="135" y="95" font-family="sans-serif" font-size="12" font-weight="400" font-style="normal">0</text>
  </g>
</svg>
